<?xml version="1.0" encoding="UTF-8"?>
<svg id="Layer_2" data-name="Layer 2" xmlns="http://www.w3.org/2000/svg" viewBox="0 0 1920 1080">
  <defs>
    <style>
      .cls-1 {
        fill: #000;
      }

      .cls-1, .cls-2, .cls-3 {
        stroke-width: 0px;
      }

      .cls-2 {
        fill: #6d11a3;
      }

      .cls-3 {
        fill: #fff;
      }
    </style>
  </defs>
  <rect class="cls-1" x="2.63" width="1919.08" height="1080"/>
  <g>
    <rect class="cls-2" x="1115.11" y="538.62" width="79.09" height="2.75"/>
    <polygon class="cls-2" points="1190.18 553.72 1213.95 540 1190.18 526.28 1190.18 553.72"/>
  </g>
  <g>
    <circle class="cls-3" cx="942.75" cy="533.14" r="434.24"/>
    <g>
      <polygon class="cls-1" points="659.36 369.53 659.36 696.75 942.75 860.36 1226.13 696.75 1226.13 369.53 942.75 205.91 659.36 369.53"/>
      <rect class="cls-3" x="939.99" y="533.14" width="5.5" height="327.23"/>
      <rect class="cls-3" x="798.3" y="287.72" width="5.51" height="327.22" transform="translate(9.66 919.4) rotate(-60)"/>
      <rect class="cls-3" x="920.83" y="448.58" width="327.22" height="5.51" transform="translate(-80.39 602.58) rotate(-29.99)"/>
      <path class="cls-3" d="M1073.86,677.29v-5.72c0-19.87,8.13-39.71,30.41-72.71,12.34-18.41,16.26-29.75,16.26-40.29,0-11.44-6.62-16.87-21.07-8.36-17.16,10.11-22.88,25.22-24.39,40.56l-42.45,25.01c1.51-26.18,17.46-69.9,67.43-99.04,49.37-29.09,63.82-5.69,63.82,17.79,0,18.97-6.02,35.46-27.7,68.4-12.95,19.67-17.16,32.09-17.16,44.43v3.31l-45.16,26.6ZM1073.86,742.61v-49.98l45.16-26.6v49.98l-45.16,26.6Z"/>
      <path class="cls-3" d="M760.15,642.53v-5.72c0-19.87,8.13-30.12,30.41-36.82,12.34-3.84,16.26-10.56,16.26-21.1,0-11.44-6.62-24.69-21.07-33.23-17.16-10.15-22.88-1.79-24.39,11.77l-42.45-25.1c1.51-24.4,17.46-49.28,67.43-19.44,49.37,29.19,63.82,69.65,63.82,93.13,0,18.97-6.02,28.35-27.7,35.71-12.95,4.39-17.16,11.83-17.16,24.17v3.31l-45.16-26.7ZM760.15,707.86v-49.98l45.16,26.7v49.98l-45.16-26.7Z"/>
    </g>
  </g>
</svg>