<?xml version="1.0" encoding="UTF-8"?>
<svg id="Layer_2" data-name="Layer 2" xmlns="http://www.w3.org/2000/svg" viewBox="0 0 1920 1080">
  <defs>
    <style>
      .cls-1 {
        fill: #000;
      }

      .cls-1, .cls-2, .cls-3, .cls-4 {
        stroke-width: 0px;
      }

      .cls-2 {
        fill: #aec0cc;
      }

      .cls-3 {
        fill: #6d11a3;
      }

      .cls-4 {
        fill: #fff;
      }
    </style>
  </defs>
  <g>
    <path class="cls-2" d="M1320.01,846.82c-93.22,0-171.83-23.17-217-64.26l17.59-19.34c87.69,79.76,321.38,75.56,454.64-8.18l13.91,22.14c-65.94,41.44-161.87,67.42-256.6,69.5-4.21.09-8.4.14-12.55.14Z"/>
    <polygon class="cls-2" points="1599.61 810.44 1634.44 723.29 1541.55 736.69 1599.61 810.44"/>
  </g>
  <g>
    <path class="cls-2" d="M263.71,421.75l-23.13-12.19c29.74-56.42,100.44-106.9,193.98-138.48,89.77-30.32,188.81-38.57,264.93-22.07l-5.54,25.55c-153.81-33.33-374.97,42.33-430.24,147.19Z"/>
    <polygon class="cls-2" points="668.52 303.29 760.42 284.24 697.98 214.17 668.52 303.29"/>
  </g>
  <g>
    <rect class="cls-3" x="1117.74" y="538.62" width="79.09" height="2.75"/>
    <polygon class="cls-3" points="1192.82 553.72 1216.58 540 1192.82 526.28 1192.82 553.72"/>
  </g>
  <g>
    <polygon class="cls-1" points="676.62 376.39 676.62 703.61 960 867.22 1243.38 703.61 1243.38 376.39 960 212.78 676.62 376.39"/>
    <rect class="cls-4" x="957.25" y="540" width="5.5" height="327.23"/>
    <rect class="cls-4" x="815.56" y="294.58" width="5.51" height="327.22" transform="translate(12.35 937.77) rotate(-60)"/>
    <rect class="cls-4" x="938.08" y="455.44" width="327.22" height="5.51" transform="translate(-81.51 612.12) rotate(-29.99)"/>
    <path class="cls-4" d="M1091.11,684.15v-5.72c0-19.87,8.13-39.71,30.41-72.71,12.34-18.41,16.26-29.75,16.26-40.29,0-11.44-6.62-16.87-21.07-8.36-17.16,10.11-22.88,25.22-24.39,40.56l-42.45,25.01c1.51-26.18,17.46-69.9,67.43-99.04,49.37-29.09,63.82-5.69,63.82,17.79,0,18.97-6.02,35.46-27.7,68.4-12.95,19.67-17.16,32.09-17.16,44.43v3.31l-45.16,26.6ZM1091.11,749.48v-49.98l45.16-26.6v49.98l-45.16,26.6Z"/>
    <path class="cls-4" d="M777.41,649.39v-5.72c0-19.87,8.13-30.12,30.41-36.82,12.34-3.84,16.26-10.56,16.26-21.1,0-11.44-6.62-24.69-21.07-33.23-17.16-10.15-22.88-1.79-24.39,11.77l-42.45-25.1c1.51-24.4,17.46-49.28,67.43-19.44,49.37,29.19,63.82,69.65,63.82,93.13,0,18.97-6.02,28.35-27.7,35.71-12.95,4.39-17.16,11.83-17.16,24.17v3.31l-45.16-26.7ZM777.41,714.72v-49.98l45.16,26.7v49.98l-45.16-26.7Z"/>
  </g>
  <g>
    <rect class="cls-3" y="401.04" width="546.88" height="277.92" rx="13.76" ry="13.76"/>
    <g>
      <path class="cls-4" d="M59.4,444.83v41.11h-8.89v-41.11h8.89Z"/>
      <path class="cls-4" d="M67.28,462.86c0-2.63,0-5.49-.06-7.82h8.29c.18.83.3,2.98.36,3.94,1.01-1.91,3.52-4.65,8.95-4.65,6.21,0,10.2,4.24,10.2,11.99v19.63h-8.53v-18.68c0-3.52-1.13-6.03-4.95-6.03s-5.67,2.03-5.67,7.52v17.19h-8.59v-23.09Z"/>
      <path class="cls-4" d="M102.6,497.76v-35.27c0-2.51,0-4.95-.06-7.46h8.29c.12.83.3,2.74.3,3.88,1.31-2.27,4.06-4.59,8.95-4.59,6.98,0,12.29,5.85,12.29,15.4,0,10.92-5.97,16.95-13.43,16.95-4.36,0-6.62-1.67-7.82-3.46v14.56h-8.53ZM117.34,461.18c-4.83,0-6.56,3.16-6.56,9.37s1.61,9.31,6.21,9.31,6.74-3.52,6.74-9.79c0-5.67-2.27-8.89-6.39-8.89Z"/>
      <path class="cls-4" d="M165.49,477c0,2.92,0,6.21.06,8.95h-8.35c-.12-.84-.18-2.51-.24-3.58-1.85,3.1-4.54,4.3-8.53,4.3-6.27,0-10.26-3.82-10.26-11.46v-20.17h8.53v18.44c0,3.4,1.08,6.21,4.77,6.21s5.49-2.09,5.49-8.17v-16.47h8.53v21.96Z"/>
      <path class="cls-4" d="M170.68,455.04h4.77v-8.35h8.53v8.35h6.09v6.44h-6.09v15.28c0,2.33.72,3.22,3.28,3.22.48,0,1.31,0,1.91-.06v5.85c-1.67.6-4,.6-5.73.6-6.03,0-8-3.22-8-8.65v-16.23h-4.77v-6.44Z"/>
    </g>
    <g>
      <path class="cls-4" d="M68.92,535.05v11.56h-11.22v-11.56h11.22Z"/>
      <path class="cls-4" d="M82.46,516.53h25.04v4.87h-19.46v11.89h18.24v4.81h-18.24v16.86h-5.58v-38.42Z"/>
      <path class="cls-4" d="M135.15,546.77c0,2.71.06,6.36.06,8.18h-5.31c-.11-.72-.17-2.43-.17-4.04-1.44,3.04-4.09,4.7-8.35,4.7-4.98,0-9.34-2.6-9.34-10.34v-18.46h5.42v17.3c0,3.59,1.11,6.86,5.53,6.86,4.86,0,6.74-2.65,6.74-9.45v-14.71h5.42v19.96Z"/>
      <path class="cls-4" d="M146.75,541.91c.06,5.31,2.71,9.23,7.3,9.23,4.2,0,5.58-2.1,6.41-4.09h5.47c-1.11,3.59-4.09,8.57-12.05,8.57-8.9,0-12.6-7.13-12.6-14.43,0-8.46,4.26-15.04,12.94-15.04,9.18,0,12.22,7.24,12.22,13.43,0,.88,0,1.55-.11,2.32h-19.57ZM160.96,538.2c-.06-4.37-2.21-7.85-6.8-7.85s-6.8,3.26-7.24,7.85h14.04Z"/>
      <path class="cls-4" d="M172.63,554.95v-40.52h5.42v40.52h-5.42Z"/>
      <path class="cls-4" d="M232.5,554.95h-4.31c-.28-.83-.44-2.43-.55-4.92-1.77,2.77-5.14,5.47-11.78,5.47-11.11,0-17.03-8.4-17.03-19.35,0-11.5,6.36-20.18,18.08-20.18,9.07,0,14.76,4.98,15.81,11.78h-5.69c-1.22-3.93-4.09-7.08-10.23-7.08-8.73,0-12,7.02-12,15.2,0,7.69,3.37,14.87,11.83,14.87s10.28-5.53,10.28-11.44v-.39h-10.34v-4.86h15.92v20.9Z"/>
      <path class="cls-4" d="M261.9,548.6c0,2.6.22,5.58.39,6.36h-5.14c-.22-.61-.39-1.99-.5-3.48-.94,1.82-3.15,4.15-8.51,4.15-6.69,0-9.51-4.37-9.51-8.62,0-6.3,4.98-9.23,13.32-9.23h4.64v-2.27c0-2.38-.77-5.2-5.69-5.2-4.48,0-5.25,2.16-5.69,4.31h-5.25c.39-4.09,2.93-8.51,11.11-8.46,7.02,0,10.84,2.87,10.84,9.29v13.16ZM256.65,541.41h-4.31c-5.42,0-8.18,1.55-8.18,5.25,0,2.76,1.88,4.81,5.2,4.81,6.41,0,7.3-4.37,7.3-9.18v-.88Z"/>
      <path class="cls-4" d="M272.68,546.83c.72,2.93,2.93,4.59,6.58,4.59,3.87,0,5.36-1.6,5.36-3.98s-1.27-3.59-6.36-4.86c-8.29-1.99-9.9-4.53-9.9-8.4s2.93-8.02,10.39-8.02,10.45,4.31,10.78,8.18h-5.2c-.39-1.66-1.6-4.09-5.81-4.09-3.7,0-4.81,1.77-4.81,3.48,0,1.99,1.1,2.93,6.14,4.15,8.73,2.05,10.34,4.97,10.34,9.12,0,4.92-3.81,8.62-11.17,8.62s-11.06-3.76-11.78-8.79h5.42Z"/>
      <path class="cls-4" d="M311.05,516.53h25.04v4.87h-19.46v11.89h18.24v4.81h-18.24v16.86h-5.58v-38.42Z"/>
      <path class="cls-4" d="M341.23,554.95v-40.52h5.42v40.52h-5.42Z"/>
      <path class="cls-4" d="M379.27,540.8c0,8.24-4.7,14.82-13.38,14.82-8.18,0-13.1-6.25-13.1-14.71s4.87-14.76,13.44-14.76c7.91,0,13.05,5.86,13.05,14.65ZM358.37,540.85c0,6.03,2.93,10.28,7.74,10.28s7.63-4.04,7.63-10.23-2.76-10.28-7.74-10.28-7.63,3.93-7.63,10.23Z"/>
      <path class="cls-4" d="M388.11,526.81c3.32,12.83,5.2,20.12,5.69,23.16h.06c.55-2.71,2.27-9.23,6.19-23.16h5.25c4.15,15.54,5.36,20.01,5.86,22.67h.06c.66-2.99,1.71-7.19,5.92-22.67h5.47l-8.62,28.14h-5.86c-2.65-10.34-5.09-19.07-5.69-22.28h-.06c-.5,3.15-2.82,11.33-5.86,22.28h-6.03l-8.13-28.14h5.75Z"/>
      <path class="cls-4" d="M68.92,601.39v11.56h-11.22v-11.56h11.22Z"/>
      <path class="cls-4" d="M114.03,621.29h-4.31c-.28-.83-.44-2.43-.55-4.92-1.77,2.77-5.14,5.47-11.78,5.47-11.11,0-17.03-8.4-17.03-19.35,0-11.5,6.36-20.18,18.08-20.18,9.07,0,14.76,4.98,15.81,11.78h-5.69c-1.22-3.93-4.09-7.08-10.23-7.08-8.73,0-12,7.02-12,15.2,0,7.69,3.37,14.87,11.83,14.87s10.28-5.53,10.28-11.44v-.39h-10.34v-4.86h15.92v20.9Z"/>
      <path class="cls-4" d="M143.44,614.93c0,2.6.22,5.58.39,6.36h-5.14c-.22-.61-.39-1.99-.5-3.48-.94,1.82-3.15,4.15-8.51,4.15-6.69,0-9.51-4.37-9.51-8.62,0-6.3,4.98-9.23,13.32-9.23h4.64v-2.27c0-2.38-.77-5.2-5.69-5.2-4.48,0-5.25,2.16-5.69,4.31h-5.25c.39-4.09,2.93-8.51,11.11-8.46,7.02,0,10.84,2.87,10.84,9.29v13.16ZM138.19,607.75h-4.31c-5.42,0-8.18,1.55-8.18,5.25,0,2.76,1.88,4.81,5.2,4.81,6.41,0,7.3-4.37,7.3-9.18v-.88Z"/>
      <path class="cls-4" d="M154.22,613.16c.72,2.93,2.93,4.59,6.58,4.59,3.87,0,5.36-1.6,5.36-3.98s-1.27-3.59-6.36-4.87c-8.29-1.99-9.9-4.53-9.9-8.4s2.93-8.02,10.39-8.02,10.45,4.31,10.78,8.18h-5.2c-.39-1.66-1.6-4.09-5.81-4.09-3.7,0-4.81,1.77-4.81,3.48,0,1.99,1.1,2.93,6.14,4.15,8.74,2.05,10.34,4.97,10.34,9.12,0,4.92-3.81,8.62-11.17,8.62s-11.06-3.76-11.78-8.79h5.42Z"/>
      <path class="cls-4" d="M223.38,610.23c-1.66,6.63-6.63,11.55-15.48,11.55-11.61,0-17.42-8.68-17.42-19.57s5.81-19.9,17.64-19.9c9.29,0,14.21,5.36,15.26,11.78h-5.69c-1.27-3.98-3.87-7.08-9.78-7.08-8.18,0-11.44,7.41-11.44,15.04s3.1,15.04,11.67,15.04c5.81,0,8.24-3.43,9.56-6.85h5.69Z"/>
      <path class="cls-4" d="M254.39,607.14c0,8.24-4.7,14.82-13.38,14.82-8.18,0-13.1-6.25-13.1-14.71s4.87-14.76,13.44-14.76c7.91,0,13.05,5.86,13.05,14.65ZM233.49,607.19c0,6.03,2.93,10.28,7.74,10.28s7.63-4.04,7.63-10.23-2.76-10.28-7.74-10.28-7.63,3.93-7.63,10.23Z"/>
      <path class="cls-4" d="M260.52,600.39c0-2.43,0-4.92-.06-7.24h5.2c.11.83.22,2.76.22,4.15,1.33-2.43,3.76-4.81,8.13-4.81,3.98,0,6.63,2.05,7.68,4.86,1.55-2.6,4.15-4.86,8.9-4.86s8.9,2.76,8.9,10.34v18.46h-5.31v-17.86c0-3.1-1.16-6.36-5.31-6.36s-6.19,3.21-6.19,8.07v16.14h-5.31v-17.64c0-3.48-.99-6.58-5.2-6.58s-6.3,3.37-6.3,8.62v15.59h-5.36v-20.9Z"/>
      <path class="cls-4" d="M307.57,632.29v-32.29c0-2.32,0-4.64-.06-6.86h5.25c.11.89.22,2.6.22,4.26,1.44-2.71,4.26-4.92,8.96-4.92,6.52,0,11.28,5.42,11.28,13.99,0,10.06-5.47,15.48-12.27,15.48-4.42,0-6.74-1.82-7.96-3.93v14.26h-5.42ZM320.45,597.02c-5.58,0-7.74,3.54-7.74,10.17s1.82,10.23,7.35,10.23c4.98,0,7.57-4.04,7.57-10.72,0-5.81-2.6-9.68-7.19-9.68Z"/>
      <path class="cls-4" d="M364.23,607.14c0,8.24-4.7,14.82-13.38,14.82-8.18,0-13.1-6.25-13.1-14.71s4.87-14.76,13.44-14.76c7.91,0,13.05,5.86,13.05,14.65ZM343.34,607.19c0,6.03,2.93,10.28,7.74,10.28s7.63-4.04,7.63-10.23-2.76-10.28-7.74-10.28-7.63,3.93-7.63,10.23Z"/>
      <path class="cls-4" d="M373.79,613.16c.72,2.93,2.93,4.59,6.58,4.59,3.87,0,5.36-1.6,5.36-3.98s-1.27-3.59-6.36-4.87c-8.29-1.99-9.9-4.53-9.9-8.4s2.93-8.02,10.39-8.02,10.45,4.31,10.78,8.18h-5.2c-.39-1.66-1.6-4.09-5.81-4.09-3.7,0-4.81,1.77-4.81,3.48,0,1.99,1.1,2.93,6.14,4.15,8.74,2.05,10.34,4.97,10.34,9.12,0,4.92-3.81,8.62-11.17,8.62s-11.06-3.76-11.78-8.79h5.42Z"/>
      <path class="cls-4" d="M397.34,587.02v-6.25h5.42v6.25h-5.42ZM397.34,593.15h5.42v28.14h-5.42v-28.14Z"/>
      <path class="cls-4" d="M407.57,593.15h4.75v-8.18h5.42v8.18h6.08v4.31h-6.08v15.98c0,2.65.66,3.93,3.15,3.93.66,0,1.6,0,2.32-.22v4.04c-1.27.44-2.98.5-4.37.5-4.64,0-6.52-2.38-6.52-7.13v-17.08h-4.75v-4.31Z"/>
      <path class="cls-4" d="M428.8,587.02v-6.25h5.42v6.25h-5.42ZM428.8,593.15h5.42v28.14h-5.42v-28.14Z"/>
      <path class="cls-4" d="M466.83,607.14c0,8.24-4.7,14.82-13.38,14.82-8.18,0-13.1-6.25-13.1-14.71s4.87-14.76,13.44-14.76c7.91,0,13.05,5.86,13.05,14.65ZM445.94,607.19c0,6.03,2.93,10.28,7.74,10.28s7.63-4.04,7.63-10.23-2.76-10.28-7.74-10.28-7.63,3.93-7.63,10.23Z"/>
      <path class="cls-4" d="M472.97,600.23c0-2.43,0-4.92-.06-7.08h5.31c.11.83.22,3.59.22,4.42,1.05-2.32,3.37-5.09,8.68-5.09s9.4,3.32,9.4,10.72v18.08h-5.42v-17.41c0-4.04-1.55-6.8-5.69-6.8-4.92,0-6.97,3.65-6.97,9.18v15.04h-5.47v-21.06Z"/>
    </g>
  </g>
  <g>
    <rect class="cls-3" x="1373.12" y="401.04" width="546.88" height="277.92" rx="13.76" ry="13.76"/>
    <g>
      <path class="cls-4" d="M1460.72,465.24c0,11.46-6.86,21.3-20.23,21.3s-19.69-9.37-19.69-21.18,7.46-21.12,20.23-21.12c12.05,0,19.69,8.41,19.69,21ZM1429.99,465.18c0,8.05,3.52,14.14,10.8,14.14,7.94,0,10.74-6.62,10.74-13.96,0-7.82-3.22-13.9-10.86-13.9s-10.68,5.73-10.68,13.73Z"/>
      <path class="cls-4" d="M1494.2,477c0,2.92,0,6.21.06,8.95h-8.35c-.12-.84-.18-2.51-.24-3.58-1.85,3.1-4.54,4.3-8.53,4.3-6.27,0-10.26-3.82-10.26-11.46v-20.17h8.53v18.44c0,3.4,1.08,6.21,4.77,6.21s5.49-2.09,5.49-8.17v-16.47h8.53v21.96Z"/>
      <path class="cls-4" d="M1499.38,455.04h4.77v-8.35h8.53v8.35h6.09v6.44h-6.09v15.28c0,2.33.72,3.22,3.28,3.22.48,0,1.31,0,1.91-.06v5.85c-1.67.6-4,.6-5.73.6-6.03,0-8-3.22-8-8.65v-16.23h-4.77v-6.44Z"/>
      <path class="cls-4" d="M1523.73,497.76v-35.27c0-2.51,0-4.95-.06-7.46h8.29c.12.83.3,2.74.3,3.88,1.31-2.27,4.06-4.59,8.95-4.59,6.98,0,12.29,5.85,12.29,15.4,0,10.92-5.97,16.95-13.43,16.95-4.36,0-6.62-1.67-7.82-3.46v14.56h-8.53ZM1538.47,461.18c-4.83,0-6.56,3.16-6.56,9.37s1.61,9.31,6.21,9.31,6.74-3.52,6.74-9.79c0-5.67-2.27-8.89-6.39-8.89Z"/>
      <path class="cls-4" d="M1586.62,477c0,2.92,0,6.21.06,8.95h-8.35c-.12-.84-.18-2.51-.24-3.58-1.85,3.1-4.54,4.3-8.53,4.3-6.27,0-10.26-3.82-10.26-11.46v-20.17h8.53v18.44c0,3.4,1.08,6.21,4.77,6.21s5.49-2.09,5.49-8.17v-16.47h8.53v21.96Z"/>
      <path class="cls-4" d="M1591.81,455.04h4.77v-8.35h8.53v8.35h6.09v6.44h-6.09v15.28c0,2.33.72,3.22,3.28,3.22.48,0,1.31,0,1.91-.06v5.85c-1.67.6-4,.6-5.73.6-6.03,0-8-3.22-8-8.65v-16.23h-4.77v-6.44Z"/>
    </g>
    <g>
      <path class="cls-4" d="M1442.04,535.05v11.56h-11.22v-11.56h11.22Z"/>
      <path class="cls-4" d="M1487.15,554.95h-4.31c-.28-.83-.44-2.43-.55-4.92-1.77,2.77-5.14,5.47-11.78,5.47-11.11,0-17.03-8.4-17.03-19.35,0-11.5,6.36-20.18,18.08-20.18,9.07,0,14.76,4.98,15.81,11.78h-5.69c-1.22-3.93-4.09-7.08-10.23-7.08-8.73,0-12,7.02-12,15.2,0,7.69,3.37,14.87,11.83,14.87s10.28-5.53,10.28-11.44v-.39h-10.34v-4.86h15.92v20.9Z"/>
      <path class="cls-4" d="M1496.33,516.53h5.69v15.87h19.13v-15.87h5.69v38.42h-5.69v-17.75h-19.13v17.75h-5.69v-38.42Z"/>
      <path class="cls-4" d="M1568.36,554.95h-4.31c-.28-.83-.44-2.43-.55-4.92-1.77,2.77-5.14,5.47-11.78,5.47-11.11,0-17.03-8.4-17.03-19.35,0-11.5,6.36-20.18,18.08-20.18,9.07,0,14.76,4.98,15.81,11.78h-5.69c-1.22-3.93-4.09-7.08-10.23-7.08-8.73,0-12,7.02-12,15.2,0,7.69,3.37,14.87,11.83,14.87s10.28-5.53,10.28-11.44v-.39h-10.34v-4.86h15.92v20.9Z"/>
    </g>
  </g>
</svg>