<?xml version="1.0" encoding="UTF-8"?>
<svg id="Layer_1" data-name="Layer 1" xmlns="http://www.w3.org/2000/svg" viewBox="0 0 547.56 546.81">
  <defs>
    <style>
      .cls-1 {
        fill: #9a5ae5;
      }

      .cls-1, .cls-2, .cls-3, .cls-4, .cls-5, .cls-6 {
        stroke-width: 0px;
      }

      .cls-7 {
        stroke: #6d11a3;
      }

      .cls-7, .cls-3, .cls-8, .cls-9 {
        fill: none;
        stroke-miterlimit: 10;
      }

      .cls-7, .cls-8, .cls-9 {
        stroke-width: 4px;
      }

      .cls-2 {
        fill: #000;
      }

      .cls-3 {
        stroke: #4262d3;
      }

      .cls-4 {
        fill: #6d11a3;
      }

      .cls-8 {
        stroke: #9a5ae5;
      }

      .cls-5 {
        fill: #55e0e0;
      }

      .cls-6 {
        fill: #fff;
      }

      .cls-9 {
        stroke: #55e0e0;
      }
    </style>
  </defs>
  <g>
    <g>
      <path class="cls-9" d="M24.68,238.72c-18.67,88.29,26.6,192,99.26,240.73l131.31-198.05"/>
      <polygon class="cls-5" points="12.17 239.23 29.12 221.78 35.76 245.19 12.17 239.23"/>
    </g>
    <path class="cls-5" d="M136.59,248.14c-15.24,53.87,5.93,109.64,49.24,138.99l69.41-105.72-118.66-33.26Z"/>
  </g>
  <g>
    <g>
      <path class="cls-8" d="M158.92,503.37c77.93,45.49,190.62,35.13,259.74-18.51l-146.7-186.93"/>
      <polygon class="cls-1" points="155.48 515.41 144.24 493.83 168.55 494.89 155.48 515.41"/>
    </g>
    <path class="cls-1" d="M203.06,400.1c46.35,31.41,105.94,28.86,147.42-3.03l-78.53-99.14-68.89,102.17Z"/>
  </g>
  <g>
    <g>
      <path class="cls-7" d="M456.82,458.18c67.11-60.33,91.64-170.8,61.65-252.99l-222.79,82.64"/>
      <polygon class="cls-4" points="467.23 465.13 443.25 469.25 451.68 446.42 467.23 465.13"/>
    </g>
    <path class="cls-4" d="M371.95,384.62c44.05-34.55,59.82-92.08,42.11-141.31l-118.38,44.52,76.27,96.79Z"/>
  </g>
  <g>
    <g>
      <path class="cls-8" d="M503.13,167.27C468.68,83.87,372.75,23.85,285.26,24.67l3.49,237.59"/>
      <polygon class="cls-1" points="513.17 159.78 509.03 183.76 490.33 168.19 513.17 159.78"/>
    </g>
    <path class="cls-1" d="M405.46,222.7c-17.85-53.06-66.81-87.13-119.13-86.89l2.42,126.45,116.71-39.56Z"/>
  </g>
  <g>
    <polyline class="cls-3" points="274.68 277.48 275.38 277.23 275.4 277.2 275.38 277.23"/>
    <g>
      <path class="cls-7" d="M230.07,25.52C140.26,34.25,54.95,108.6,30.31,192.55l228.36,65.7"/>
      <polygon class="cls-4" points="225.81 13.74 247.56 24.66 227.23 38.03 225.81 13.74"/>
    </g>
    <polygon class="cls-2" points="274.96 277.84 275.38 277.23 274.68 277.48 274.96 277.84"/>
  </g>
  <g>
    <path class="cls-4" d="M254.72,135.08c-55.96,1.66-102.79,38.61-117.76,88.75l121.7,34.42-3.94-123.17Z"/>
    <polygon class="cls-2" points="274.44 278.19 274.68 277.85 274.29 277.99 274.44 278.19"/>
  </g>
  <circle class="cls-6" cx="274.44" cy="278.19" r="104.89"/>
  <g>
    <path class="cls-2" d="M223.54,245.36h4.15c4.43,0,5.28,2.48,5.28,6.09v8.04c0,3.17-.52,6.58-5.35,6.58h-4.08v-20.71ZM226.32,263.69h1.12c2.27,0,2.71-1.38,2.71-3.76v-8.73c0-2.11-.38-3.43-2.71-3.43h-1.12v15.93Z"/>
    <path class="cls-2" d="M243.42,263.02c0,1.04,0,2.5.06,3.05h-2.55c-.07-.33-.17-.98-.19-1.22-.53,1.06-1.44,1.47-2.62,1.47-2.36,0-3.3-2.15-3.3-4.57v-.28c0-3.79,2.48-4.93,5.33-4.93h.5v-2.24c0-1.33-.19-2.12-1.27-2.12s-1.33.82-1.33,1.92v.33h-2.73v-.28c0-2.27.88-4.25,4.16-4.25,2.95,0,3.94,1.71,3.94,4.2v8.94ZM240.71,258.67h-.63c-1.6,0-2.6.64-2.6,2.75v.26c0,1.25.42,2.19,1.52,2.19,1.23,0,1.71-.92,1.71-3.16v-2.04Z"/>
    <path class="cls-2" d="M244.76,250.13h1.75v-3.86h2.77v3.86h2.1v2.45h-2.1v9.96c0,.78.12,1.46,1.1,1.46.29,0,.73-.03.92-.09v2.11c-.51.23-1.27.29-1.85.29-1.81,0-2.94-.64-2.94-3.27v-10.46h-1.75v-2.45Z"/>
    <path class="cls-2" d="M261.12,263.02c0,1.04,0,2.5.06,3.05h-2.55c-.07-.33-.17-.98-.19-1.22-.53,1.06-1.44,1.47-2.62,1.47-2.36,0-3.3-2.15-3.3-4.57v-.28c0-3.79,2.48-4.93,5.33-4.93h.5v-2.24c0-1.33-.19-2.12-1.27-2.12s-1.33.82-1.33,1.92v.33h-2.73v-.28c0-2.27.88-4.25,4.16-4.25,2.95,0,3.94,1.71,3.94,4.2v8.94ZM258.41,258.67h-.63c-1.6,0-2.6.64-2.6,2.75v.26c0,1.25.42,2.19,1.52,2.19,1.23,0,1.71-.92,1.71-3.16v-2.04Z"/>
    <path class="cls-2" d="M268.6,256.63v2.55h-5.44v-2.55h5.44Z"/>
    <path class="cls-2" d="M270.66,245.36h4.15c4.43,0,5.28,2.48,5.28,6.09v8.04c0,3.17-.52,6.58-5.35,6.58h-4.08v-20.71ZM273.44,263.69h1.12c2.27,0,2.71-1.38,2.71-3.76v-8.73c0-2.11-.38-3.43-2.71-3.43h-1.12v15.93Z"/>
    <path class="cls-2" d="M282.52,255.54c0-2.61.02-3.87-.03-5.41h2.64c.03.35.08,1.6.08,2.54.61-2.08,2-2.75,3.45-2.77v3.43c-1.88,0-3.36.75-3.36,3.86v8.88h-2.78v-10.53Z"/>
    <path class="cls-2" d="M290.21,250.13h2.78v15.94h-2.78v-15.94ZM290.23,244.45h2.78v3.32h-2.78v-3.32Z"/>
    <path class="cls-2" d="M297.58,250.13c.5,2.94,1.62,9.52,2,12.83h.03c.27-3.12,1.6-9.7,2.1-12.83h2.79l-3.41,15.94h-3.15l-3.34-15.94h2.97Z"/>
    <path class="cls-2" d="M308.32,258.78v2.45c0,1.38.3,2.72,1.66,2.72s1.57-1.17,1.57-2.48v-.1h2.71v.09c0,1.75-.39,4.84-4.24,4.84s-4.41-2.38-4.41-5.6v-5.52c0-2.28.75-5.31,4.42-5.31,3.27,0,4.29,2.29,4.29,5.3v3.6h-5.99ZM311.65,256.58v-1.78c0-1.48-.3-2.55-1.63-2.55-1.22,0-1.68.94-1.68,2.56v1.77h3.3Z"/>
    <path class="cls-2" d="M316.53,255.02c0-3.22,0-4.14-.03-4.89h2.65c.05.36.11.96.11,1.51.46-1.03,1.36-1.76,2.93-1.76,1.86,0,3.22,1.1,3.22,4.08v12.11h-2.78v-11.58c0-1.48-.51-2.1-1.5-2.1-1.21,0-1.82.63-1.82,3.15v10.53h-2.78v-11.05Z"/>
    <path class="cls-2" d="M202.99,282.56h4.15c4.43,0,5.28,2.48,5.28,6.09v8.04c0,3.17-.52,6.58-5.35,6.58h-4.08v-20.71ZM205.77,300.89h1.12c2.27,0,2.71-1.38,2.71-3.76v-8.73c0-2.11-.38-3.43-2.71-3.43h-1.12v15.93Z"/>
    <path class="cls-2" d="M217.22,295.98v2.45c0,1.38.3,2.72,1.66,2.72s1.57-1.17,1.57-2.48v-.1h2.71v.09c0,1.75-.39,4.84-4.24,4.84s-4.41-2.38-4.41-5.6v-5.52c0-2.28.75-5.31,4.42-5.31,3.27,0,4.29,2.29,4.29,5.3v3.6h-5.99ZM220.54,293.78v-1.78c0-1.48-.3-2.55-1.63-2.55-1.22,0-1.68.94-1.68,2.56v1.77h3.3Z"/>
    <path class="cls-2" d="M233.52,298.08v.22c0,2.83-.72,5.22-4.24,5.22s-4.15-2.33-4.15-5.6v-5.77c0-2.64.91-5.07,4.29-5.07,3.63,0,4.09,2.64,4.09,4.68v.62h-2.74v-.62c0-1.32-.21-2.32-1.4-2.32-1.06,0-1.45.81-1.45,2.38v6.88c0,1.25.23,2.46,1.43,2.46,1.12,0,1.42-.82,1.42-2.42v-.65h2.74Z"/>
    <path class="cls-2" d="M235.62,287.33h2.78v15.94h-2.78v-15.94ZM235.64,281.65h2.78v3.32h-2.78v-3.32Z"/>
    <path class="cls-2" d="M243.22,298.39v.72c0,1.22.42,2.06,1.48,2.06,1.01,0,1.42-.62,1.42-1.85s-.36-1.96-2.24-3.19c-2.17-1.41-3.2-2.55-3.2-4.8,0-2.55,1.32-4.23,4.02-4.23,2.93,0,4,1.72,4,4.42v.68h-2.69v-.94c0-1.21-.38-1.8-1.3-1.8s-1.26.64-1.26,1.64.33,1.5,1.84,2.49c2.6,1.67,3.64,2.79,3.64,5.41,0,2.98-1.44,4.54-4.32,4.54-3.39,0-4.2-2.18-4.2-4.42v-.71h2.81Z"/>
    <path class="cls-2" d="M251,287.33h2.78v15.94h-2.78v-15.94ZM251.02,281.65h2.78v3.32h-2.78v-3.32Z"/>
    <path class="cls-2" d="M265.05,292.07v6.35c0,3.43-1.67,5.09-4.49,5.09s-4.42-1.68-4.42-5.05v-6.5c0-3.29,1.82-4.89,4.51-4.89s4.4,1.76,4.4,4.99ZM258.92,291.94v6.63c0,1.47.47,2.49,1.69,2.49,1.13,0,1.65-.81,1.65-2.53v-6.61c0-1.37-.41-2.36-1.66-2.36-1.17,0-1.67.84-1.67,2.39Z"/>
    <path class="cls-2" d="M267.37,292.22c0-3.22,0-4.14-.03-4.89h2.65c.05.36.11.96.11,1.51.46-1.03,1.36-1.76,2.93-1.76,1.86,0,3.22,1.1,3.22,4.08v12.11h-2.78v-11.58c0-1.48-.51-2.1-1.5-2.1-1.21,0-1.82.63-1.82,3.15v10.53h-2.78v-11.05Z"/>
    <path class="cls-2" d="M293.61,295.17c0-3.64.05-7.9.11-10.2h-.03c-.49,3.54-1.82,12.24-2.81,18.3h-2.65c-.74-5.36-2.1-14.58-2.58-18.33h-.06c.06,2.41.16,7.1.16,10.66v7.67h-2.54v-20.71h4.13c.94,5.62,2,12.24,2.28,15.03h.03c.33-2.79,1.65-9.73,2.61-15.03h4.01v20.71h-2.66v-8.1Z"/>
    <path class="cls-2" d="M306.97,300.22c0,1.04,0,2.5.06,3.05h-2.55c-.07-.33-.17-.98-.19-1.22-.53,1.06-1.44,1.47-2.62,1.47-2.36,0-3.3-2.15-3.3-4.57v-.28c0-3.79,2.48-4.93,5.33-4.93h.5v-2.24c0-1.33-.19-2.12-1.27-2.12s-1.33.82-1.33,1.92v.33h-2.73v-.28c0-2.27.88-4.25,4.16-4.25,2.95,0,3.94,1.71,3.94,4.2v8.94ZM304.25,295.87h-.63c-1.6,0-2.6.64-2.6,2.75v.26c0,1.25.42,2.19,1.52,2.19,1.23,0,1.71-.92,1.71-3.16v-2.04Z"/>
    <path class="cls-2" d="M312.53,294.45h.05c.73-1.77,2.27-5.14,3.11-7.11h2.93l-2.96,5.87,3.29,10.06h-3.03l-2.17-7.36-1.21,2.35v5.01h-2.76v-21.62h2.76v12.8Z"/>
    <path class="cls-2" d="M320.28,287.33h2.78v15.94h-2.78v-15.94ZM320.3,281.65h2.78v3.32h-2.78v-3.32Z"/>
    <path class="cls-2" d="M325.86,292.22c0-3.22,0-4.14-.03-4.89h2.65c.05.36.11.96.11,1.51.46-1.03,1.36-1.76,2.93-1.76,1.86,0,3.22,1.1,3.22,4.08v12.11h-2.78v-11.58c0-1.48-.51-2.1-1.5-2.1-1.21,0-1.82.63-1.82,3.15v10.53h-2.78v-11.05Z"/>
    <path class="cls-2" d="M345.98,302.61c0,3.41-.35,6.26-4.66,6.26-3.6,0-4.23-2.32-4.23-4.07v-.07h2.79v.08c0,.58.22,1.75,1.59,1.75,1.45,0,1.73-1.1,1.73-3.23v-1.87c-.41.97-1.28,1.55-2.65,1.55-2.71,0-3.47-2.06-3.47-4.95v-6.18c0-2.43.98-4.8,3.8-4.8,1.66,0,2.37.8,2.62,1.65,0-.47.08-1.1.14-1.4h2.41c-.03.94-.06,2.31-.06,4.07v11.21ZM339.86,292.05v5.81c0,1.8.44,2.69,1.55,2.69,1.55,0,1.8-1.38,1.8-3.41v-4.68c0-1.56-.16-2.86-1.62-2.86-1.16,0-1.73.8-1.73,2.46Z"/>
  </g>
  <g>
    <path class="cls-2" d="M130.32,106.55v1.09c0,1.49.48,2.31,1.63,2.31s1.55-.99,1.55-2.5c0-2.01-.44-2.71-2.36-4.22-1.94-1.53-2.95-2.48-2.95-5.15,0-2.34.71-4.66,3.79-4.65,3.06,0,3.66,2.14,3.66,4.24v.91s-2.4,0-2.4,0v-.85c0-1.36-.25-2.21-1.3-2.21s-1.32.91-1.32,2.2c0,1.45.28,2.08,1.9,3.28,2.62,1.96,3.43,3.07,3.43,6.08,0,2.55-.83,4.93-4.06,4.93-3.16,0-3.98-2.04-3.98-4.42v-1.06s2.42,0,2.42,0Z"/>
    <path class="cls-2" d="M136.71,97.87h1.52v-3.37s2.41,0,2.41,0v3.37h1.83s0,2.13,0,2.13h-1.83v8.68c0,.68.11,1.27.96,1.27.25,0,.64-.03.8-.08v1.84c-.45.2-1.11.25-1.61.25-1.57,0-2.56-.56-2.56-2.85v-9.12h-1.52s0-2.13,0-2.13Z"/>
    <path class="cls-2" d="M145.83,105.41v2.14c0,1.2.26,2.37,1.44,2.37s1.37-1.02,1.37-2.16v-.09s2.37,0,2.37,0v.08c0,1.52-.34,4.22-3.7,4.22-3.27,0-3.85-2.07-3.85-4.89v-4.81c0-1.99.66-4.63,3.85-4.63,2.85,0,3.74,1.99,3.74,4.62,0,.79,0,2.35,0,3.14h-5.23ZM148.73,103.49v-1.55c0-1.29-.26-2.23-1.42-2.23-1.07,0-1.46.82-1.46,2.24v1.55h2.88Z"/>
    <path class="cls-2" d="M155.42,110.72v5.72s-2.42,0-2.42,0v-14.57c0-1.88,0-3.14-.03-4h2.31c.05.27.09.86.09,1.42.38-.91,1.14-1.63,2.54-1.63,1.93,0,2.86,1.33,2.86,4.06v5.78c0,3.15-1.11,4.5-3.12,4.5-1.28,0-1.9-.63-2.23-1.26ZM158.34,107.52v-5.64c0-1.44-.49-2.05-1.33-2.05-1.13,0-1.6.83-1.6,2.52v4.71c0,1.5.25,2.73,1.48,2.73,1.09,0,1.45-.85,1.45-2.28Z"/>
    <path class="cls-2" d="M167.21,111.77v-14.77c-.49.13-1.45.26-1.88.27v-1.86c1.08-.15,2.06-.75,2.54-1.31h1.76s0,17.67,0,17.67h-2.42Z"/>
    <path class="cls-2" d="M100.49,122.96h2.96c2.33,0,3.9,1.59,3.9,4.06s-1.54,4.22-3.94,4.22h-2.92s0-8.28,0-8.28ZM101.59,130.31h1.74c1.95,0,2.88-1.4,2.88-3.27,0-1.63-.85-3.15-2.87-3.15h-1.74v6.42Z"/>
    <path class="cls-2" d="M109.47,128.41c0,1.23.63,2.1,1.65,2.1.96,0,1.26-.49,1.46-.93h1.05c-.24.77-.89,1.8-2.54,1.8-1.9,0-2.67-1.54-2.67-3.1,0-1.79.9-3.23,2.74-3.23,1.95,0,2.58,1.56,2.58,2.85,0,.18,0,.34-.02.5h-4.25ZM112.68,127.68c-.01-.99-.51-1.79-1.54-1.79s-1.53.74-1.63,1.79h3.18Z"/>
    <path class="cls-2" d="M115.4,131.24v-5.19h-.97s0-.85,0-.85h.97v-.72c0-1.11.42-2.1,1.76-2.1.22,0,.52.03.67.08v.88c-.14-.03-.37-.05-.53-.05-.62,0-.85.37-.85,1.26v.66h1.21s0,.85,0,.85h-1.21v5.19s-1.04,0-1.04,0Z"/>
    <path class="cls-2" d="M118.66,122.5h1.04s0,1.3,0,1.3h-1.04s0-1.3,0-1.3ZM118.66,125.21h1.04s0,6.04,0,6.04h-1.04s0-6.04,0-6.04Z"/>
    <path class="cls-2" d="M121.49,126.73c0-.52,0-1.05-.01-1.52h1.01c.03.18.04.81.04.99.24-.52.73-1.13,1.9-1.13s2.02.69,2.02,2.3v3.88s-1.04,0-1.04,0v-3.75c0-.91-.36-1.53-1.28-1.53-1.14,0-1.6.87-1.6,2.08v3.19s-1.04,0-1.04,0v-4.51Z"/>
    <path class="cls-2" d="M128.84,128.41c0,1.23.63,2.1,1.65,2.1.96,0,1.26-.49,1.46-.93h1.05c-.24.77-.89,1.8-2.54,1.8-1.9,0-2.67-1.54-2.67-3.1,0-1.79.9-3.23,2.74-3.23,1.95,0,2.58,1.56,2.58,2.85,0,.18,0,.34-.02.5h-4.25ZM132.06,127.68c-.01-.99-.51-1.79-1.54-1.79s-1.53.74-1.63,1.79h3.18Z"/>
    <path class="cls-2" d="M136.63,125.21h1.04v-1.78s1.04,0,1.04,0v1.78h1.33s0,.85,0,.85h-1.33v3.53c0,.59.14.89.69.89.14,0,.36,0,.53-.05v.78c-.26.1-.61.11-.9.11-.94,0-1.35-.49-1.35-1.49v-3.78h-1.04s0-.85,0-.85Z"/>
    <path class="cls-2" d="M142.2,122.5v3.59c.31-.53.86-1.03,1.88-1.03.97,0,2.03.53,2.03,2.33v3.85s-1.04,0-1.04,0v-3.68c0-1.03-.43-1.6-1.31-1.6-1.08,0-1.57.72-1.57,1.98v3.3s-1.04,0-1.04,0v-8.74s1.04,0,1.04,0Z"/>
    <path class="cls-2" d="M148.51,128.41c0,1.23.63,2.1,1.65,2.1.96,0,1.26-.49,1.46-.93h1.05c-.24.77-.89,1.8-2.54,1.8-1.9,0-2.67-1.54-2.67-3.1,0-1.79.9-3.23,2.74-3.23,1.95,0,2.59,1.56,2.59,2.85,0,.18,0,.34-.02.5h-4.25ZM151.73,127.68c-.01-.99-.51-1.79-1.54-1.79s-1.53.74-1.63,1.79h3.18Z"/>
    <path class="cls-2" d="M158.11,130.5v3.12s-1.04,0-1.04,0v-6.93c0-.49,0-1-.01-1.47h1.01c.02.2.04.57.04.95.33-.61.94-1.09,1.97-1.09,1.4,0,2.41,1.17,2.41,3.01,0,2.16-1.16,3.32-2.62,3.32-.98,0-1.49-.41-1.76-.89ZM161.42,128.11c0-1.28-.58-2.16-1.61-2.16-1.25,0-1.75.79-1.75,2.26,0,1.43.41,2.29,1.67,2.29,1.1,0,1.69-.91,1.69-2.39Z"/>
    <path class="cls-2" d="M163.86,126.84c0-.84,0-1.32-.01-1.64h1.02c.02.17.03.64.03,1.23.32-.82,1.04-1.34,2.03-1.37v1.04c-1.24.04-2.03.68-2.03,2.21v2.93s-1.04,0-1.04,0v-4.4Z"/>
    <path class="cls-2" d="M173.14,128.21c0,1.74-1,3.17-2.84,3.17-1.73,0-2.78-1.34-2.78-3.15,0-1.78,1.02-3.17,2.84-3.17,1.68,0,2.77,1.26,2.77,3.15ZM168.6,128.22c0,1.32.66,2.29,1.75,2.29s1.73-.92,1.73-2.28-.62-2.29-1.75-2.29-1.72.91-1.72,2.29Z"/>
    <path class="cls-2" d="M174.5,122.5h1.04s0,3.56,0,3.56c.27-.51.83-1,1.93-1,1.51,0,2.47,1.25,2.47,3.04s-.92,3.28-2.63,3.28c-.97,0-1.47-.35-1.77-.94,0,.31-.02.63-.04.8h-1c.01-.67.01-1.35.01-2.03v-6.71ZM178.86,128.12c0-1.3-.59-2.17-1.64-2.17-1.28,0-1.73.86-1.73,2.3,0,1.26.4,2.26,1.68,2.26,1.07,0,1.69-.91,1.69-2.38Z"/>
    <path class="cls-2" d="M181.29,131.24v-8.74s1.04,0,1.04,0v8.74s-1.04,0-1.04,0Z"/>
    <path class="cls-2" d="M184.74,128.41c0,1.23.63,2.1,1.65,2.1.96,0,1.26-.49,1.46-.93h1.05c-.24.77-.89,1.8-2.54,1.8-1.9,0-2.67-1.54-2.67-3.1,0-1.79.9-3.23,2.74-3.23,1.95,0,2.59,1.56,2.59,2.85,0,.18,0,.34-.02.5h-4.25ZM187.95,127.68c-.01-.99-.51-1.79-1.54-1.79s-1.53.74-1.63,1.79h3.18Z"/>
    <path class="cls-2" d="M190.35,126.76c0-.52,0-1.07-.01-1.56h1c.02.18.04.63.04.93.28-.54.8-1.07,1.76-1.07.85,0,1.44.43,1.67,1.08.32-.57.89-1.08,1.92-1.08s1.9.58,1.9,2.21v3.97s-1.02,0-1.02,0v-3.84c0-.7-.25-1.44-1.19-1.44s-1.41.74-1.41,1.81v3.47s-1.02,0-1.02,0v-3.81c0-.78-.22-1.47-1.17-1.47s-1.44.78-1.44,1.93v3.34s-1.03,0-1.03,0v-4.48Z"/>
  </g>
  <g>
    <path class="cls-2" d="M372.76,106.43v1.09c0,1.49.48,2.31,1.63,2.31s1.55-.99,1.55-2.5c0-2.01-.44-2.71-2.36-4.22-1.94-1.53-2.95-2.48-2.95-5.15,0-2.34.71-4.66,3.79-4.65,3.06,0,3.66,2.14,3.66,4.24v.91h-2.4v-.85c0-1.36-.25-2.21-1.3-2.21-1.05,0-1.32.91-1.32,2.2,0,1.45.28,2.08,1.9,3.28,2.62,1.96,3.43,3.07,3.43,6.08,0,2.55-.83,4.93-4.06,4.93-3.16,0-3.98-2.04-3.98-4.42v-1.06h2.42Z"/>
    <path class="cls-2" d="M379.15,97.75h1.52s0-3.37,0-3.37h2.41v3.37s1.83,0,1.83,0v2.13h-1.83s0,8.68,0,8.68c0,.68.11,1.27.96,1.27.25,0,.64-.03.8-.08v1.84c-.45.2-1.11.25-1.61.25-1.57,0-2.56-.56-2.56-2.85v-9.12s-1.52,0-1.52,0v-2.13Z"/>
    <path class="cls-2" d="M388.27,105.3v2.14c0,1.2.26,2.37,1.44,2.37s1.37-1.02,1.37-2.16v-.09h2.37v.08c0,1.52-.34,4.22-3.7,4.22-3.27,0-3.85-2.07-3.85-4.89v-4.81c0-1.99.66-4.63,3.85-4.63,2.85,0,3.74,1.99,3.74,4.62v3.14h-5.23ZM391.17,103.37v-1.55c0-1.29-.26-2.23-1.42-2.23-1.07,0-1.46.82-1.46,2.24v1.55s2.88,0,2.88,0Z"/>
    <path class="cls-2" d="M397.86,110.61v5.72h-2.42v-14.57c0-1.88,0-3.14-.03-4h2.31c.05.27.09.86.09,1.42.38-.91,1.14-1.63,2.54-1.63,1.93,0,2.86,1.33,2.86,4.06v5.78c0,3.15-1.11,4.5-3.12,4.5-1.28,0-1.9-.63-2.23-1.26ZM400.78,107.4v-5.64c0-1.44-.49-2.05-1.33-2.05-1.13,0-1.6.83-1.6,2.52v4.71c0,1.5.25,2.73,1.48,2.73,1.09,0,1.45-.85,1.45-2.28Z"/>
    <path class="cls-2" d="M408.08,111.65v-.3c.02-3.1,1.31-5.25,3.23-8.01,1.44-2.06,1.9-2.78,1.9-4.73,0-1.91-.25-2.71-1.37-2.71-1.02,0-1.41.78-1.41,2.23v.87h-2.24v-.95c0-1.98.63-4.2,3.77-4.2,2.91,0,3.69,1.92,3.69,4.61s-.84,3.92-2.28,5.9c-1.4,1.96-2.45,3.74-2.59,5.19h5.22s-.33,2.09-.33,2.09h-7.59Z"/>
    <path class="cls-2" d="M352.34,128.64l-.89,2.48h-1.09s2.95-8.28,2.95-8.28h1.35s3.08,8.28,3.08,8.28h-1.17s-.92-2.48-.92-2.48h-3.3ZM355.36,127.7c-.79-2.18-1.22-3.33-1.4-3.96h-.01c-.2.7-.69,2.1-1.32,3.96h2.74Z"/>
    <path class="cls-2" d="M358.88,126.61c0-.52,0-1.05-.01-1.52h1.01c.03.18.04.81.04.99.24-.52.73-1.13,1.9-1.13s2.02.69,2.02,2.3v3.88h-1.04v-3.75c0-.91-.36-1.53-1.28-1.53-1.14,0-1.6.87-1.6,2.08v3.19h-1.04v-4.51Z"/>
    <path class="cls-2" d="M370.03,129.81c0,.55.05,1.14.08,1.32h-1c-.05-.13-.08-.42-.1-.79-.21.4-.69.93-1.86.93-1.42,0-2.03-.93-2.03-1.84,0-1.35,1.06-1.96,2.85-1.96h1.03s0-.51,0-.51c0-.53-.17-1.18-1.3-1.18-1.01,0-1.18.5-1.29.97h-1.01c.08-.83.59-1.79,2.33-1.79,1.47,0,2.29.61,2.29,1.98v2.88ZM369.02,128.18h-.98c-1.2,0-1.85.33-1.85,1.18,0,.63.43,1.08,1.17,1.08,1.45,0,1.65-.98,1.65-2.07v-.19Z"/>
    <path class="cls-2" d="M371.83,131.12v-8.74h1.04v8.74h-1.04Z"/>
    <path class="cls-2" d="M375.11,125.09c.98,2.89,1.51,4.49,1.67,5.11h.01c.2-.68.63-2.06,1.61-5.11h1.05s-2.17,6.31-2.17,6.31c-.61,1.77-1.07,2.21-2.3,2.21-.19,0-.42-.01-.65-.04v-.91c.15.02.33.03.5.03.76,0,1.06-.34,1.41-1.34l-2.26-6.27h1.13Z"/>
    <path class="cls-2" d="M380.04,130.28l3.47-4.32h-3.3v-.88h4.49v.87s-3.42,4.28-3.42,4.28h3.59s-.17.88-.17.88h-4.66v-.84Z"/>
    <path class="cls-2" d="M386.56,128.29c0,1.23.63,2.1,1.65,2.1.96,0,1.26-.49,1.46-.93h1.05c-.24.77-.89,1.8-2.54,1.8-1.9,0-2.67-1.54-2.67-3.1,0-1.79.9-3.23,2.74-3.23,1.95,0,2.58,1.56,2.58,2.85,0,.18,0,.34-.02.5h-4.25ZM389.77,127.56c-.01-.99-.51-1.79-1.54-1.79s-1.53.74-1.63,1.79h3.18Z"/>
    <path class="cls-2" d="M394.35,125.09h1.04s0-1.78,0-1.78h1.04v1.78s1.33,0,1.33,0v.85h-1.33s0,3.53,0,3.53c0,.59.14.89.69.89.14,0,.36,0,.53-.05v.78c-.26.1-.61.11-.9.11-.94,0-1.35-.49-1.35-1.49v-3.78s-1.04,0-1.04,0v-.85Z"/>
    <path class="cls-2" d="M399.91,122.38v3.59c.31-.53.86-1.03,1.88-1.03.97,0,2.03.53,2.03,2.33v3.85h-1.04v-3.68c0-1.03-.43-1.6-1.31-1.6-1.08,0-1.57.72-1.57,1.98v3.3h-1.04v-8.74h1.04Z"/>
    <path class="cls-2" d="M406.23,128.29c0,1.23.63,2.1,1.65,2.1.96,0,1.26-.49,1.46-.93h1.05c-.24.77-.89,1.8-2.54,1.8-1.9,0-2.67-1.54-2.67-3.1,0-1.79.9-3.23,2.74-3.23,1.95,0,2.59,1.56,2.59,2.85,0,.18,0,.34-.02.5h-4.25ZM409.44,127.56c-.01-.99-.51-1.79-1.54-1.79s-1.53.74-1.63,1.79h3.18Z"/>
    <path class="cls-2" d="M419.81,122.38v7.03c0,.57,0,1.12.01,1.71h-1c-.03-.16-.05-.62-.05-.86-.3.63-.91,1-1.9,1-1.55,0-2.5-1.26-2.5-3.1,0-1.86,1.03-3.22,2.7-3.22,1.07,0,1.54.43,1.71.77v-3.33h1.04ZM415.45,128.13c0,1.46.69,2.25,1.64,2.25,1.41,0,1.72-1.04,1.72-2.37s-.28-2.19-1.64-2.19c-1.06,0-1.72.84-1.72,2.31Z"/>
    <path class="cls-2" d="M426.01,129.81c0,.55.05,1.14.08,1.32h-1c-.05-.13-.08-.42-.1-.79-.21.4-.69.93-1.86.93-1.42,0-2.03-.93-2.03-1.84,0-1.35,1.06-1.96,2.85-1.96h1.03s0-.51,0-.51c0-.53-.17-1.18-1.3-1.18-1.01,0-1.18.5-1.29.97h-1.01c.08-.83.59-1.79,2.33-1.79,1.47,0,2.29.61,2.29,1.98v2.88ZM424.99,128.18h-.98c-1.2,0-1.85.33-1.85,1.18,0,.63.43,1.08,1.17,1.08,1.45,0,1.65-.98,1.65-2.07v-.19Z"/>
    <path class="cls-2" d="M426.95,125.09h1.04s0-1.78,0-1.78h1.04v1.78s1.33,0,1.33,0v.85h-1.33s0,3.53,0,3.53c0,.59.14.89.69.89.14,0,.36,0,.53-.05v.78c-.26.1-.61.11-.9.11-.94,0-1.35-.49-1.35-1.49v-3.78s-1.04,0-1.04,0v-.85Z"/>
    <path class="cls-2" d="M435.99,129.81c0,.55.05,1.14.08,1.32h-1c-.05-.13-.08-.42-.1-.79-.21.4-.69.93-1.86.93-1.42,0-2.03-.93-2.03-1.84,0-1.35,1.06-1.96,2.85-1.96h1.03s0-.51,0-.51c0-.53-.17-1.18-1.3-1.18-1.01,0-1.18.5-1.29.97h-1.01c.08-.83.59-1.79,2.33-1.79,1.47,0,2.29.61,2.29,1.98v2.88ZM434.98,128.18h-.98c-1.2,0-1.85.33-1.85,1.18,0,.63.43,1.08,1.17,1.08,1.45,0,1.65-.98,1.65-2.07v-.19Z"/>
  </g>
  <g>
    <path class="cls-2" d="M447.07,323.82v1.09c0,1.49.48,2.31,1.63,2.31s1.55-.99,1.55-2.5c0-2.01-.44-2.71-2.36-4.22-1.94-1.53-2.95-2.48-2.95-5.15,0-2.34.71-4.66,3.79-4.65,3.06,0,3.66,2.14,3.66,4.24v.91h-2.4v-.85c0-1.36-.25-2.21-1.3-2.21s-1.32.91-1.32,2.2c0,1.45.28,2.08,1.9,3.28,2.62,1.96,3.43,3.07,3.43,6.08,0,2.55-.83,4.93-4.06,4.93s-3.98-2.04-3.98-4.42v-1.06h2.42Z"/>
    <path class="cls-2" d="M453.46,315.14h1.52v-3.37h2.41v3.37h1.83v2.13h-1.83v8.68c0,.68.11,1.27.96,1.27.25,0,.64-.03.8-.08v1.84c-.45.2-1.11.25-1.61.25-1.57,0-2.56-.56-2.56-2.85v-9.12h-1.52v-2.13Z"/>
    <path class="cls-2" d="M462.58,322.69v2.14c0,1.2.26,2.37,1.44,2.37s1.37-1.02,1.37-2.16v-.09h2.37v.08c0,1.52-.34,4.22-3.7,4.22s-3.85-2.07-3.85-4.89v-4.81c0-1.99.66-4.63,3.85-4.63,2.85,0,3.74,1.99,3.74,4.62v3.14h-5.23ZM465.48,320.76v-1.55c0-1.29-.26-2.23-1.42-2.23-1.07,0-1.46.82-1.46,2.24v1.55h2.88Z"/>
    <path class="cls-2" d="M472.17,328v5.72h-2.42v-14.57c0-1.88,0-3.14-.03-4h2.31c.05.27.09.86.09,1.42.38-.91,1.14-1.63,2.54-1.63,1.93,0,2.86,1.33,2.86,4.06v5.78c0,3.15-1.11,4.5-3.12,4.5-1.28,0-1.9-.63-2.23-1.26ZM475.09,324.8v-5.64c0-1.44-.49-2.05-1.33-2.05-1.13,0-1.6.83-1.6,2.52v4.71c0,1.5.25,2.73,1.48,2.73,1.09,0,1.45-.85,1.45-2.28Z"/>
    <path class="cls-2" d="M482.75,315.87v-.51c0-1.84.57-4.11,3.68-4.11,2.68,0,3.58,1.69,3.58,4.1v.68c0,2.02-.65,2.96-1.68,3.38v.03c1.28.44,2.09,1.4,2.09,3.57v1.45c0,2.81-.87,4.82-4.02,4.82-2.85,0-3.89-1.6-3.89-4.07v-.55h2.25v.53c0,1.09.36,2.09,1.62,2.09s1.62-.93,1.62-2.5v-1.73c0-1.83-.63-2.48-2.15-2.48h-.75v-2.09h.73c1.31,0,1.82-.53,1.82-2.2v-.95c0-1.15-.22-2.06-1.34-2.06s-1.39.91-1.39,1.95v.65h-2.19Z"/>
    <path class="cls-2" d="M425.53,340.23h2.96c2.33,0,3.9,1.59,3.9,4.06s-1.54,4.22-3.94,4.22h-2.92v-8.28ZM426.62,347.58h1.74c1.95,0,2.88-1.4,2.88-3.27,0-1.63-.85-3.15-2.87-3.15h-1.74v6.42Z"/>
    <path class="cls-2" d="M434.51,345.69c0,1.23.63,2.1,1.65,2.1.96,0,1.26-.49,1.46-.93h1.05c-.24.77-.89,1.8-2.54,1.8-1.9,0-2.67-1.54-2.67-3.1,0-1.79.9-3.23,2.74-3.23,1.95,0,2.58,1.56,2.58,2.85,0,.18,0,.34-.02.5h-4.25ZM437.72,344.95c-.01-.99-.51-1.79-1.54-1.79s-1.53.74-1.63,1.79h3.18Z"/>
    <path class="cls-2" d="M440.61,342.48c.81,2.47,1.41,4.31,1.59,5.07h.01c.15-.67.79-2.48,1.69-5.07h1.06l-2.22,6.04h-1.15l-2.11-6.04h1.12Z"/>
    <path class="cls-2" d="M446.57,345.69c0,1.23.63,2.1,1.65,2.1.96,0,1.26-.49,1.46-.93h1.05c-.24.77-.89,1.8-2.54,1.8-1.9,0-2.67-1.54-2.67-3.1,0-1.79.9-3.23,2.74-3.23,1.95,0,2.58,1.56,2.58,2.85,0,.18,0,.34-.02.5h-4.25ZM449.79,344.95c-.01-.99-.51-1.79-1.54-1.79s-1.53.74-1.63,1.79h3.18Z"/>
    <path class="cls-2" d="M452.21,348.51v-8.74h1.04v8.74h-1.04Z"/>
    <path class="cls-2" d="M460.22,345.48c0,1.74-1,3.17-2.84,3.17-1.73,0-2.78-1.34-2.78-3.15s1.02-3.17,2.84-3.17c1.68,0,2.77,1.26,2.77,3.15ZM455.67,345.5c0,1.32.66,2.29,1.75,2.29s1.73-.92,1.73-2.28-.62-2.29-1.75-2.29-1.72.91-1.72,2.29Z"/>
    <path class="cls-2" d="M462.61,347.77v3.12h-1.04v-6.93c0-.49,0-1-.01-1.47h1.01c.02.2.04.57.04.95.33-.61.94-1.09,1.97-1.09,1.4,0,2.41,1.17,2.41,3.01,0,2.16-1.16,3.32-2.62,3.32-.98,0-1.49-.41-1.76-.89ZM465.92,345.38c0-1.28-.58-2.16-1.61-2.16-1.25,0-1.75.79-1.75,2.26s.41,2.29,1.67,2.29c1.1,0,1.69-.91,1.69-2.39Z"/>
    <path class="cls-2" d="M471.37,339.78h1.04v1.3h-1.04v-1.3ZM471.37,342.48h1.04v6.04h-1.04v-6.04Z"/>
    <path class="cls-2" d="M474.19,344c0-.52,0-1.05-.01-1.52h1.01c.03.18.04.81.04.99.24-.52.73-1.13,1.9-1.13s2.02.69,2.02,2.3v3.88h-1.04v-3.75c0-.91-.36-1.53-1.28-1.53-1.14,0-1.6.87-1.6,2.08v3.19h-1.04v-4.51Z"/>
    <path class="cls-2" d="M481.37,346.79c.17.66.66,1.05,1.48,1.05.89,0,1.23-.38,1.23-.93s-.28-.83-1.43-1.11c-1.73-.42-2.08-.95-2.08-1.77s.63-1.7,2.18-1.7,2.19.9,2.27,1.74h-1.01c-.09-.39-.38-.93-1.31-.93-.85,0-1.1.41-1.1.8,0,.45.25.67,1.35.94,1.83.43,2.2,1.04,2.2,1.94,0,1.06-.84,1.83-2.34,1.83s-2.33-.79-2.48-1.87h1.04Z"/>
    <path class="cls-2" d="M486.49,339.78h1.04v1.3h-1.04v-1.3ZM486.49,342.48h1.04v6.04h-1.04v-6.04Z"/>
    <path class="cls-2" d="M494.29,347.97c0,1.93-.8,3.04-2.77,3.04-1.83,0-2.39-1.02-2.5-1.85h1.06c.18.66.71,1.01,1.48,1.01,1.37,0,1.71-.87,1.71-2.26v-.49c-.32.68-.88,1.06-1.89,1.06-1.49,0-2.5-1.21-2.5-2.98,0-1.97,1.15-3.17,2.61-3.17,1.15,0,1.64.54,1.78.94.01-.27.04-.67.05-.8h.98c0,.35-.02,1.16-.02,1.74v3.75ZM489.97,345.46c0,1.27.66,2.14,1.65,2.14,1.3,0,1.68-.87,1.68-2.21s-.36-2.16-1.65-2.16c-1.12,0-1.68.93-1.68,2.24Z"/>
    <path class="cls-2" d="M497.1,339.78v3.59c.31-.53.86-1.03,1.88-1.03.97,0,2.03.53,2.03,2.33v3.85h-1.04v-3.68c0-1.03-.43-1.6-1.31-1.6-1.08,0-1.57.72-1.57,1.98v3.3h-1.04v-8.74h1.04Z"/>
    <path class="cls-2" d="M501.95,342.48h1.04v-1.78h1.04v1.78h1.33v.85h-1.33v3.53c0,.59.14.89.69.89.14,0,.36,0,.53-.05v.78c-.26.1-.61.11-.9.11-.94,0-1.35-.49-1.35-1.49v-3.78h-1.04v-.85Z"/>
    <path class="cls-2" d="M507.13,346.79c.17.66.66,1.05,1.48,1.05.89,0,1.23-.38,1.23-.93s-.28-.83-1.43-1.11c-1.73-.42-2.08-.95-2.08-1.77s.63-1.7,2.18-1.7,2.19.9,2.27,1.74h-1.01c-.09-.39-.38-.93-1.31-.93-.85,0-1.1.41-1.1.8,0,.45.25.67,1.35.94,1.83.43,2.2,1.04,2.2,1.94,0,1.06-.84,1.83-2.34,1.83s-2.33-.79-2.48-1.87h1.04Z"/>
  </g>
  <g>
    <path class="cls-2" d="M66.88,335.53v1.09c0,1.49.48,2.31,1.63,2.31s1.55-.99,1.55-2.5c0-2.01-.44-2.71-2.36-4.22-1.94-1.53-2.95-2.48-2.95-5.15,0-2.34.71-4.66,3.79-4.65,3.06,0,3.66,2.14,3.66,4.24v.91h-2.4v-.85c0-1.36-.25-2.21-1.3-2.21s-1.32.91-1.32,2.2c0,1.45.28,2.08,1.9,3.28,2.62,1.96,3.43,3.07,3.43,6.08,0,2.55-.83,4.93-4.06,4.93s-3.98-2.04-3.98-4.42v-1.06h2.42Z"/>
    <path class="cls-2" d="M73.27,326.85h1.52v-3.37h2.41v3.37h1.83v2.13h-1.83v8.68c0,.68.11,1.27.96,1.27.25,0,.64-.03.8-.08v1.84c-.45.2-1.11.25-1.61.25-1.57,0-2.56-.56-2.56-2.85v-9.12h-1.52v-2.13Z"/>
    <path class="cls-2" d="M82.4,334.4v2.14c0,1.2.26,2.37,1.44,2.37s1.37-1.02,1.37-2.16v-.09h2.37v.08c0,1.52-.34,4.22-3.7,4.22s-3.85-2.07-3.85-4.89v-4.81c0-1.99.66-4.63,3.85-4.63,2.85,0,3.74,1.99,3.74,4.62v3.14h-5.23ZM85.3,332.47v-1.55c0-1.29-.26-2.23-1.42-2.23-1.07,0-1.46.82-1.46,2.24v1.55h2.88Z"/>
    <path class="cls-2" d="M91.98,339.71v5.72h-2.42v-14.57c0-1.88,0-3.14-.03-4h2.31c.05.27.09.86.09,1.42.38-.91,1.14-1.63,2.54-1.63,1.93,0,2.86,1.33,2.86,4.06v5.78c0,3.15-1.11,4.5-3.12,4.5-1.28,0-1.9-.63-2.23-1.26ZM94.9,336.51v-5.64c0-1.44-.49-2.05-1.33-2.05-1.13,0-1.6.83-1.6,2.52v4.71c0,1.5.25,2.73,1.48,2.73,1.09,0,1.45-.85,1.45-2.28Z"/>
    <path class="cls-2" d="M109.92,325.32h-4.36c-.09,1.48-.24,3.53-.35,4.67.36-.53,1.16-.89,2.15-.89,2.34,0,3.2,1.73,3.2,4.66v1.92c0,3.02-.85,5.29-4.1,5.29-2.97,0-3.95-1.94-3.95-4.32v-.36h2.41v.56c0,1.01.32,2.1,1.54,2.1,1.33,0,1.6-1.03,1.6-2.95v-2.15c0-1.79-.29-2.71-1.53-2.71-1.03,0-1.42.6-1.64,1.77l-2.16-.23c.26-2.47.6-7.33.73-9.52h6.73l-.26,2.14Z"/>
    <path class="cls-2" d="M52.02,356.58v3.65h-1.09v-8.28h3.24c1.7,0,2.61.92,2.61,2.22,0,1.08-.62,1.73-1.41,1.95.68.18,1.26.69,1.26,2.12v.35c0,.57-.03,1.29.11,1.64h-1.07c-.15-.36-.14-1-.14-1.78v-.18c0-1.18-.33-1.69-1.82-1.69h-1.69ZM52.02,355.65h1.8c1.27,0,1.82-.48,1.82-1.41,0-.88-.57-1.38-1.7-1.38h-1.92v2.79Z"/>
    <path class="cls-2" d="M59.02,357.4c0,1.23.63,2.1,1.65,2.1.96,0,1.26-.49,1.46-.93h1.05c-.24.77-.89,1.8-2.54,1.8-1.9,0-2.67-1.54-2.67-3.1,0-1.79.9-3.23,2.74-3.23,1.95,0,2.59,1.56,2.59,2.85,0,.18,0,.34-.02.5h-4.25ZM62.24,356.66c-.01-.99-.51-1.79-1.54-1.79s-1.53.74-1.63,1.79h3.18Z"/>
    <path class="cls-2" d="M65.12,354.19c.81,2.47,1.41,4.31,1.59,5.07h.01c.15-.67.79-2.48,1.69-5.07h1.06l-2.22,6.04h-1.15l-2.11-6.04h1.12Z"/>
    <path class="cls-2" d="M70.54,351.49h1.04v1.3h-1.04v-1.3ZM70.54,354.19h1.04v6.04h-1.04v-6.04Z"/>
    <path class="cls-2" d="M73.98,357.4c0,1.23.63,2.1,1.65,2.1.96,0,1.26-.49,1.46-.93h1.05c-.24.77-.89,1.8-2.54,1.8-1.9,0-2.67-1.54-2.67-3.1,0-1.79.9-3.23,2.74-3.23,1.95,0,2.58,1.56,2.58,2.85,0,.18,0,.34-.02.5h-4.25ZM77.19,356.66c-.01-.99-.51-1.79-1.54-1.79s-1.53.74-1.63,1.79h3.18Z"/>
    <path class="cls-2" d="M80.12,354.19c.75,2.83,1.18,4.45,1.28,5.07h.02c.11-.56.53-2.07,1.39-5.07h1.02c.94,3.42,1.23,4.41,1.32,4.95h.01c.15-.65.39-1.55,1.33-4.95h1.06l-1.86,6.04h-1.13c-.59-2.2-1.17-4.24-1.3-4.89h-.01c-.11.66-.65,2.49-1.33,4.89h-1.17l-1.75-6.04h1.1Z"/>
    <path class="cls-2" d="M91.75,355.83c0-.84,0-1.32-.01-1.64h1.02c.02.17.03.64.03,1.23.32-.82,1.04-1.34,2.03-1.37v1.04c-1.24.04-2.03.68-2.03,2.21v2.93h-1.04v-4.4Z"/>
    <path class="cls-2" d="M96.47,357.4c0,1.23.63,2.1,1.65,2.1.96,0,1.26-.49,1.46-.93h1.05c-.24.77-.89,1.8-2.54,1.8-1.9,0-2.67-1.54-2.67-3.1,0-1.79.9-3.23,2.74-3.23,1.95,0,2.58,1.56,2.58,2.85,0,.18,0,.34-.02.5h-4.25ZM99.68,356.66c-.01-.99-.51-1.79-1.54-1.79s-1.53.74-1.63,1.79h3.18Z"/>
    <path class="cls-2" d="M102.67,358.5c.17.66.66,1.05,1.48,1.05.89,0,1.23-.38,1.23-.93s-.28-.83-1.43-1.11c-1.73-.42-2.08-.95-2.08-1.77s.63-1.7,2.18-1.7,2.19.9,2.27,1.74h-1.01c-.09-.39-.38-.93-1.31-.93-.85,0-1.1.41-1.1.8,0,.45.25.67,1.35.94,1.83.43,2.2,1.04,2.2,1.94,0,1.06-.84,1.83-2.34,1.83s-2.33-.79-2.48-1.87h1.04Z"/>
    <path class="cls-2" d="M112.52,358.46c0,.59,0,1.4.01,1.76h-1.01c-.02-.16-.04-.53-.04-.9-.3.67-.88,1.05-1.83,1.05-1.02,0-1.99-.51-1.99-2.21v-3.97h1.03v3.75c0,.79.25,1.52,1.25,1.52,1.11,0,1.54-.61,1.54-2.12v-3.15h1.04v4.28Z"/>
    <path class="cls-2" d="M114.31,360.22v-8.74h1.04v8.74h-1.04Z"/>
    <path class="cls-2" d="M116.41,354.19h1.04v-1.78h1.04v1.78h1.33v.85h-1.33v3.53c0,.59.14.89.69.89.14,0,.36,0,.53-.05v.78c-.26.1-.61.11-.9.11-.94,0-1.35-.49-1.35-1.49v-3.78h-1.04v-.85Z"/>
    <path class="cls-2" d="M121.59,358.5c.17.66.66,1.05,1.48,1.05.89,0,1.23-.38,1.23-.93s-.28-.83-1.43-1.11c-1.73-.42-2.08-.95-2.08-1.77s.63-1.7,2.18-1.7,2.19.9,2.27,1.74h-1.01c-.09-.39-.38-.93-1.31-.93-.85,0-1.1.41-1.1.8,0,.45.25.67,1.35.94,1.83.43,2.2,1.04,2.2,1.94,0,1.06-.84,1.83-2.34,1.83s-2.33-.79-2.48-1.87h1.04Z"/>
  </g>
  <g>
    <path class="cls-2" d="M260.03,467.98v1.09c0,1.49.48,2.31,1.63,2.31s1.55-.99,1.55-2.5c0-2.01-.44-2.71-2.36-4.22-1.94-1.53-2.95-2.48-2.95-5.15,0-2.34.71-4.66,3.79-4.65,3.06,0,3.66,2.14,3.66,4.24v.91h-2.4v-.85c0-1.36-.25-2.21-1.3-2.21s-1.32.91-1.32,2.2c0,1.45.28,2.08,1.9,3.28,2.62,1.96,3.43,3.07,3.43,6.08,0,2.55-.83,4.93-4.06,4.93s-3.98-2.04-3.98-4.42v-1.06h2.42Z"/>
    <path class="cls-2" d="M266.42,459.3h1.52v-3.37h2.41v3.37h1.83v2.13h-1.83v8.68c0,.68.11,1.27.96,1.27.25,0,.64-.03.8-.08v1.84c-.45.2-1.11.25-1.61.25-1.57,0-2.56-.56-2.56-2.85v-9.12h-1.52v-2.13Z"/>
    <path class="cls-2" d="M275.55,466.84v2.14c0,1.2.26,2.37,1.44,2.37s1.37-1.02,1.37-2.16v-.09h2.37v.08c0,1.52-.34,4.22-3.7,4.22s-3.85-2.07-3.85-4.89v-4.81c0-1.99.66-4.63,3.85-4.63,2.85,0,3.74,1.99,3.74,4.62v3.14h-5.23ZM278.45,464.92v-1.55c0-1.29-.26-2.23-1.42-2.23-1.07,0-1.46.82-1.46,2.24v1.55h2.88Z"/>
    <path class="cls-2" d="M285.13,472.15v5.72h-2.42v-14.57c0-1.88,0-3.14-.03-4h2.31c.05.27.09.86.09,1.42.38-.91,1.14-1.63,2.54-1.63,1.93,0,2.86,1.33,2.86,4.06v5.78c0,3.15-1.11,4.5-3.12,4.5-1.28,0-1.9-.63-2.23-1.26ZM288.05,468.95v-5.64c0-1.44-.49-2.05-1.33-2.05-1.13,0-1.6.83-1.6,2.52v4.71c0,1.5.25,2.73,1.48,2.73,1.09,0,1.45-.85,1.45-2.28Z"/>
    <path class="cls-2" d="M300.3,473.2v-4.54h-4.96v-1.79l3.98-11.24h3.22v11.04h1.35l-.19,2h-1.15v4.54h-2.23ZM300.3,463.07c0-1.72.06-3.46.1-5.17h-.03c-.85,2.95-1.78,5.83-2.72,8.76h2.65v-3.59Z"/>
    <path class="cls-2" d="M251.06,485.33h-2.67v-.94h6.46v.94h-2.68v7.34h-1.11v-7.34Z"/>
    <path class="cls-2" d="M255.26,489.84c0,1.23.63,2.1,1.65,2.1.96,0,1.26-.49,1.46-.93h1.05c-.24.77-.89,1.8-2.54,1.8-1.9,0-2.67-1.54-2.67-3.1,0-1.79.9-3.23,2.74-3.23,1.95,0,2.58,1.56,2.58,2.85,0,.18,0,.34-.02.5h-4.25ZM258.47,489.11c-.01-.99-.51-1.79-1.54-1.79s-1.53.74-1.63,1.79h3.18Z"/>
    <path class="cls-2" d="M261.46,490.94c.17.66.66,1.05,1.48,1.05.89,0,1.23-.38,1.23-.93s-.28-.83-1.43-1.11c-1.73-.42-2.08-.95-2.08-1.77s.63-1.7,2.18-1.7,2.19.9,2.27,1.74h-1.01c-.09-.39-.38-.93-1.31-.93-.85,0-1.1.41-1.1.8,0,.45.25.67,1.35.94,1.83.43,2.2,1.04,2.2,1.94,0,1.06-.84,1.83-2.34,1.83s-2.33-.79-2.48-1.87h1.04Z"/>
    <path class="cls-2" d="M265.76,486.63h1.04v-1.78h1.04v1.78h1.33v.85h-1.33v3.53c0,.59.14.89.69.89.14,0,.36,0,.53-.05v.78c-.26.1-.61.11-.9.11-.94,0-1.35-.49-1.35-1.49v-3.78h-1.04v-.85Z"/>
    <path class="cls-2" d="M273.34,483.93h1.04v1.3h-1.04v-1.3ZM273.34,486.63h1.04v6.04h-1.04v-6.04Z"/>
    <path class="cls-2" d="M276.16,488.15c0-.52,0-1.05-.01-1.52h1.01c.03.18.04.81.04.99.24-.52.73-1.13,1.9-1.13s2.02.69,2.02,2.3v3.88h-1.04v-3.75c0-.91-.36-1.53-1.28-1.53-1.14,0-1.6.87-1.6,2.08v3.19h-1.04v-4.51Z"/>
    <path class="cls-2" d="M283.34,490.94c.17.66.66,1.05,1.48,1.05.89,0,1.23-.38,1.23-.93s-.28-.83-1.43-1.11c-1.73-.42-2.08-.95-2.08-1.77s.63-1.7,2.18-1.7,2.19.9,2.27,1.74h-1.01c-.09-.39-.38-.93-1.31-.93-.85,0-1.1.41-1.1.8,0,.45.25.67,1.35.94,1.83.43,2.2,1.04,2.2,1.94,0,1.06-.84,1.83-2.34,1.83s-2.33-.79-2.48-1.87h1.04Z"/>
    <path class="cls-2" d="M288.46,483.93h1.04v1.3h-1.04v-1.3ZM288.46,486.63h1.04v6.04h-1.04v-6.04Z"/>
    <path class="cls-2" d="M296.26,492.12c0,1.93-.8,3.04-2.77,3.04-1.83,0-2.39-1.02-2.5-1.85h1.06c.18.66.71,1.01,1.48,1.01,1.37,0,1.71-.87,1.71-2.26v-.49c-.32.68-.88,1.06-1.89,1.06-1.49,0-2.5-1.21-2.5-2.98,0-1.97,1.15-3.17,2.61-3.17,1.15,0,1.64.54,1.78.94.01-.27.04-.67.05-.8h.98c0,.35-.02,1.16-.02,1.74v3.75ZM291.94,489.61c0,1.27.66,2.14,1.65,2.14,1.3,0,1.68-.87,1.68-2.21s-.36-2.16-1.65-2.16c-1.12,0-1.68.93-1.68,2.24Z"/>
    <path class="cls-2" d="M299.07,483.93v3.59c.31-.53.86-1.03,1.88-1.03.97,0,2.03.53,2.03,2.33v3.85h-1.04v-3.68c0-1.03-.43-1.6-1.31-1.6-1.08,0-1.57.72-1.57,1.98v3.3h-1.04v-8.74h1.04Z"/>
    <path class="cls-2" d="M303.92,486.63h1.04v-1.78h1.04v1.78h1.33v.85h-1.33v3.53c0,.59.14.89.69.89.14,0,.36,0,.53-.05v.78c-.26.1-.61.11-.9.11-.94,0-1.35-.49-1.35-1.49v-3.78h-1.04v-.85Z"/>
    <path class="cls-2" d="M309.1,490.94c.17.66.66,1.05,1.48,1.05.89,0,1.23-.38,1.23-.93s-.28-.83-1.43-1.11c-1.73-.42-2.08-.95-2.08-1.77s.63-1.7,2.18-1.7,2.19.9,2.27,1.74h-1.01c-.09-.39-.38-.93-1.31-.93-.85,0-1.1.41-1.1.8,0,.45.25.67,1.35.94,1.83.43,2.2,1.04,2.2,1.94,0,1.06-.84,1.83-2.34,1.83s-2.33-.79-2.48-1.87h1.04Z"/>
  </g>
</svg>